<svg width="80" height="81" viewBox="0 0 80 81" fill="none" xmlns="http://www.w3.org/2000/svg">
<g clip-path="url(#clip0_735_580)">
<path d="M23.6318 26.8158H4.71458V31.4791H31.4591V4.73443H26.7961V23.3855L3.47899 0.0683594L0.181641 3.36572L23.6318 26.8158Z" fill="#007CC9"/>
<path d="M31.4606 48.7598V75.5043H26.7975V56.582L3.34618 80.0333L0.0488281 76.736L23.3619 53.423H4.71603V48.7598H31.4606Z" fill="#007CC9"/>
<path d="M48.4629 48.7598H75.2075V53.423H56.5612L79.8748 76.7364L76.5774 80.0337L53.1262 56.5824V75.5043H48.4629V48.7598Z" fill="#007CC9"/>
<path d="M48.4629 31.4787H75.2075V26.8154H56.2894L79.6026 3.50245L76.3052 0.205078L53.1262 23.3842V4.734H48.4629V31.4787Z" fill="#007CC9"/>
</g>
<defs>
<clipPath id="clip0_735_580">
<rect width="79.9878" height="80.2" fill="white"/>
</clipPath>
</defs>
</svg>
