<svg width="16" height="18" viewBox="0 0 16 18" fill="none" xmlns="http://www.w3.org/2000/svg">
<g clip-path="url(#clip0_664_62)">
<path d="M0.000566959 -1.54297C-1.41901 -1.54297 -2.58008 -0.386044 -2.58008 1.02846V17.4856C-2.58008 18.9001 -1.41901 20.057 0.000566959 20.057H16.5167C17.9363 20.057 19.0973 18.9001 19.0973 17.4856V1.02846C19.0973 -0.386044 17.9363 -1.54297 16.5167 -1.54297H0.000566959ZM0.000566959 -0.514397H16.5167C17.3794 -0.514397 18.0651 0.168792 18.0651 1.02846V17.4856C18.0651 18.3453 17.3794 19.0285 16.5167 19.0285H0.000566959C-0.862182 19.0285 -1.54782 18.3453 -1.54782 17.4856V1.02846C-1.54782 0.168792 -0.862182 -0.514397 0.000566959 -0.514397ZM8.79694 1.54275C8.66023 1.54276 8.52911 1.59681 8.43235 1.69304C8.33559 1.78926 8.28109 1.91981 8.28081 2.05603C8.28081 2.05603 8.27514 4.56328 8.26972 7.07634C8.26698 8.33287 8.26369 9.5907 8.26166 10.5377C8.25962 11.4848 8.25863 12.084 8.25863 12.1338C8.25863 13.0674 7.40775 13.8304 6.43807 13.8304C5.47611 13.8304 4.70823 13.0642 4.70823 12.1057C4.70823 11.1472 5.47611 10.382 6.43807 10.382C6.47066 10.382 6.53634 10.3927 6.64875 10.4061C6.72126 10.4148 6.79478 10.408 6.86446 10.3863C6.93415 10.3645 6.99841 10.3283 7.053 10.28C7.10759 10.2317 7.15127 10.1724 7.18116 10.106C7.21105 10.0396 7.22646 9.96763 7.22637 9.89487V7.73426C7.22636 7.60343 7.17631 7.47753 7.08642 7.38217C6.99653 7.28681 6.87354 7.22917 6.7425 7.22098C6.66208 7.21594 6.56087 7.20592 6.43807 7.20592C3.72863 7.20592 1.52073 9.40594 1.52073 12.1057C1.52073 14.8055 3.72863 17.0055 6.43807 17.0055C9.14743 17.0055 11.3554 14.8054 11.3554 12.1057V7.45201C12.1062 8.05034 13.0419 8.42935 14.0752 8.42935C14.2161 8.42935 14.3501 8.42103 14.4784 8.40926C14.6066 8.39748 14.7257 8.33841 14.8124 8.24364C14.8991 8.14887 14.9472 8.02524 14.9471 7.89699V5.49531C14.9472 5.36529 14.8979 5.24007 14.809 5.14484C14.7202 5.04961 14.5985 4.99144 14.4683 4.98203C12.8453 4.866 11.5515 3.60617 11.3826 2.00379C11.3694 1.87735 11.3097 1.76026 11.2149 1.67512C11.1201 1.58998 10.9971 1.54282 10.8695 1.54275H8.79694ZM9.31206 2.57132H10.4895C10.8646 4.26779 12.195 5.56158 13.9149 5.88605V7.3596C12.8109 7.30374 11.8413 6.755 11.2707 5.89007C11.2097 5.7975 11.1203 5.72704 11.0159 5.68916C10.9114 5.65129 10.7975 5.64802 10.691 5.67984C10.5845 5.71167 10.4912 5.77689 10.4249 5.8658C10.3587 5.95471 10.323 6.06257 10.3231 6.17333V12.1057C10.3231 14.2495 8.58961 15.9769 6.43807 15.9769C4.2866 15.9769 2.55299 14.2495 2.55299 12.1057C2.55299 10.0483 4.16371 8.41524 6.19411 8.28371V9.40268C4.79356 9.53255 3.67597 10.6776 3.67597 12.1057C3.67597 13.6199 4.91847 14.8589 6.43807 14.8589C7.94993 14.8589 9.29089 13.6729 9.29089 12.1338C9.29089 12.159 9.29185 11.4868 9.29391 10.5397C9.29593 9.59271 9.29926 8.33488 9.30198 7.07835C9.30683 4.82223 9.31111 3.00805 9.31206 2.57132Z" fill="white"/>
</g>
<defs>
<clipPath id="clip0_664_62">
<rect width="16" height="18" fill="white"/>
</clipPath>
</defs>
</svg>
