<svg width="20" height="20" viewBox="0 0 20 20" fill="none" xmlns="http://www.w3.org/2000/svg">
<path d="M9.76016 3.6001C7.11953 3.6001 4.63984 3.8001 3.31953 4.07979C2.43984 4.27979 1.67891 4.87979 1.51953 5.8001C1.36016 6.75947 1.19922 8.2001 1.19922 10.0001C1.19922 11.8001 1.35859 13.2001 1.55859 14.2001C1.71953 15.0798 2.47891 15.7204 3.35859 15.9204C4.76016 16.2001 7.15859 16.4001 9.79922 16.4001C12.4398 16.4001 14.8383 16.2001 16.2383 15.9204C17.1195 15.7204 17.8789 15.1204 18.0383 14.2001C18.1992 13.2001 18.3992 11.761 18.4383 9.96103C18.4383 8.16104 18.2383 6.72041 18.0383 5.72041C17.8789 4.84072 17.1195 4.2001 16.2383 4.0001C14.8383 3.8001 12.3992 3.6001 9.76016 3.6001ZM9.76016 4.4001C12.6398 4.4001 14.9586 4.63916 16.0789 4.83916C16.6789 5.0001 17.1586 5.4001 17.2383 5.92041C17.4789 7.2001 17.6383 8.56103 17.6383 9.96103C17.5992 11.6798 17.3992 13.0798 17.2383 14.0798C17.1195 14.8392 16.3195 15.0798 16.0789 15.161C14.6383 15.4407 12.2383 15.6392 9.83828 15.6392C7.43828 15.6392 4.99922 15.4798 3.59922 15.161C2.99922 15.0001 2.51953 14.6001 2.43984 14.0798C2.11953 12.9595 1.99922 11.4798 1.99922 10.0001C1.99922 8.15947 2.16016 6.8001 2.31953 5.96104C2.43984 5.2001 3.27891 4.95947 3.47891 4.87979C4.79922 4.6001 7.23984 4.4001 9.76016 4.4001ZM7.59922 6.8001V13.2001L13.1992 10.0001L7.59922 6.8001ZM8.39922 8.16104L11.5992 10.0001L8.39922 11.8392V8.16104Z" fill="white"/>
</svg>
